<svg width="7" height="10" viewBox="0 0 7 10" fill="none" xmlns="http://www.w3.org/2000/svg">
<path d="M6.33278 8.08543L2.77083 5.18141L6.33278 2.27739C6.70149 1.97803 6.75561 1.4368 6.45625 1.06809C6.15688 0.701071 5.61565 0.645257 5.24694 0.944622L0.900221 4.48965C0.700643 4.65202 0.597472 4.88712 0.587324 5.1256C0.585633 5.1442 0.587324 5.1628 0.587324 5.18141C0.587324 5.20001 0.587324 5.21862 0.587324 5.23722C0.595781 5.4757 0.700643 5.7091 0.900221 5.87316L5.24694 9.4182C5.61565 9.71756 6.15688 9.66344 6.45625 9.29473C6.75561 8.92602 6.70149 8.38479 6.33278 8.08543Z" fill="#434348"/>
</svg>
