<svg xmlns="http://www.w3.org/2000/svg" width="179" height="53" fill="none"><g clip-path="url(#a)"><path fill="#fff" d="M177.822 46.75a5.073 5.073 0 0 1-5.076 5.072H6.276a5.092 5.092 0 0 1-5.098-5.072V6.261a5.088 5.088 0 0 1 5.099-5.084h166.446a5.085 5.085 0 0 1 5.087 5.084V46.75h.012Z"/><path fill="#A5A5A5" d="M172.735 53H6.277A6.279 6.279 0 0 1 0 46.739V6.26C0 2.808 2.81 0 6.277 0h166.446A6.279 6.279 0 0 1 179 6.261v40.49c0 3.452-2.821 6.26-6.277 6.26l.012-.011Z"/><path fill="#000" d="M177.822 46.75a5.073 5.073 0 0 1-5.076 5.072H6.276a5.092 5.092 0 0 1-5.098-5.072V6.261a5.088 5.088 0 0 1 5.099-5.084h166.446a5.085 5.085 0 0 1 5.087 5.084V46.75h.012Z"/><path fill="#fff" d="M39.972 26.223c-.034-4.269 3.5-6.352 3.66-6.443-2.006-2.92-5.11-3.317-6.21-3.351-2.605-.272-5.143 1.562-6.469 1.562-1.325 0-3.399-1.528-5.608-1.483-2.844.045-5.495 1.687-6.957 4.235-3.002 5.197-.759 12.84 2.119 17.04 1.439 2.06 3.127 4.359 5.325 4.28 2.153-.09 2.957-1.37 5.563-1.37s3.33 1.37 5.586 1.324c2.31-.034 3.772-2.072 5.166-4.144 1.665-2.355 2.334-4.687 2.357-4.8-.057-.023-4.487-1.71-4.532-6.828v-.022Zm-4.249-12.568c1.156-1.45 1.949-3.42 1.733-5.424-1.676.08-3.772 1.155-4.985 2.582-1.065 1.245-2.028 3.295-1.778 5.22 1.88.135 3.818-.952 5.03-2.378Z"/><path fill="url(#b)" d="M172.735 0H83.569l34.918 53h54.236c3.456 0 6.266-2.808 6.277-6.261V6.26C179 2.808 176.19 0 172.723 0h.012Z"/><path fill="#fff" d="M71.197 41.757h-3.014l-1.654-5.186h-5.733l-1.575 5.186h-2.934l5.687-17.64h3.512l5.71 17.64Zm-5.167-7.36-1.495-4.608c-.159-.476-.453-1.574-.895-3.317h-.057c-.17.747-.453 1.856-.838 3.317l-1.473 4.608h4.758Zm19.748.838c0 2.163-.589 3.872-1.767 5.13-1.054 1.12-2.368 1.675-3.92 1.675-1.688 0-2.9-.6-3.637-1.8v6.668H73.62v-13.7c0-1.358-.034-2.75-.102-4.177h2.493l.159 2.015h.056c.94-1.517 2.38-2.276 4.294-2.276 1.507 0 2.753.589 3.762 1.778.997 1.189 1.507 2.751 1.507 4.687h-.012Zm-2.878.102c0-1.234-.283-2.253-.838-3.068-.612-.838-1.428-1.257-2.459-1.257-.702 0-1.337.238-1.903.69a3.18 3.18 0 0 0-1.11 1.823 3.69 3.69 0 0 0-.136.86v2.118c0 .929.283 1.71.85 2.344.566.634 1.302.951 2.209.951 1.065 0 1.892-.408 2.492-1.234.59-.815.895-1.902.895-3.25v.023Zm17.528-.102c0 2.163-.59 3.872-1.768 5.13-1.053 1.12-2.368 1.675-3.92 1.675-1.688 0-2.9-.6-3.637-1.8v6.668h-2.832v-13.7c0-1.358-.034-2.75-.102-4.177h2.492l.159 2.015h.057c.94-1.517 2.368-2.276 4.294-2.276 1.495 0 2.753.589 3.761 1.778.997 1.189 1.507 2.751 1.507 4.687h-.011Zm-2.878.102c0-1.234-.283-2.253-.838-3.068-.612-.838-1.428-1.257-2.46-1.257-.702 0-1.336.238-1.902.69a3.18 3.18 0 0 0-1.11 1.823c-.091.351-.137.635-.137.86v2.118c0 .929.283 1.71.85 2.344.566.634 1.303.951 2.22.951 1.066 0 1.893-.408 2.493-1.234.59-.815.895-1.902.895-3.25l-.011.023Zm19.249 1.46c0 1.507-.521 2.718-1.575 3.67-1.144 1.03-2.753 1.539-4.803 1.539-1.904 0-3.422-.362-4.578-1.098l.657-2.355c1.235.736 2.606 1.098 4.091 1.098 1.065 0 1.892-.238 2.492-.725.589-.475.895-1.12.895-1.925 0-.713-.249-1.313-.736-1.811-.488-.487-1.303-.94-2.436-1.359-3.093-1.155-4.634-2.842-4.634-5.05 0-1.449.544-2.626 1.631-3.555 1.088-.928 2.538-1.392 4.34-1.392 1.609 0 2.945.283 4.01.837l-.713 2.299c-.997-.544-2.13-.815-3.388-.815-.997 0-1.779.249-2.345.735-.476.442-.714.963-.714 1.597 0 .69.272 1.268.816 1.732.464.42 1.325.872 2.56 1.359 1.518.611 2.64 1.325 3.354 2.14.725.815 1.076 1.845 1.076 3.057v.023Zm9.381-5.65h-3.115v6.171c0 1.574.543 2.355 1.654 2.355.51 0 .929-.045 1.257-.135l.08 2.15c-.555.205-1.292.318-2.198.318-1.122 0-1.994-.34-2.617-1.02-.624-.678-.941-1.822-.941-3.43v-6.408h-1.858V29.03h1.858v-2.333l2.776-.838v3.17h3.116v2.13l-.012-.012Zm14.038 4.133c0 1.96-.555 3.556-1.677 4.812-1.167 1.291-2.719 1.937-4.656 1.937-1.938 0-3.354-.623-4.464-1.857-1.111-1.234-1.666-2.797-1.666-4.688 0-1.89.578-3.589 1.711-4.846 1.144-1.257 2.685-1.88 4.623-1.88 1.937 0 3.365.623 4.509 1.858 1.088 1.2 1.62 2.75 1.62 4.653v.011Zm-2.934.068c0-1.166-.25-2.162-.76-3-.589-1.008-1.438-1.517-2.537-1.517s-2.006.51-2.595 1.517c-.51.838-.759 1.857-.759 3.057s.249 2.174.759 3c.612 1.008 1.462 1.518 2.572 1.518s1.926-.521 2.538-1.54c.521-.86.782-1.857.782-3.035Zm12.134-3.838a4.695 4.695 0 0 0-.895-.08c-.997 0-1.768.374-2.312 1.133-.464.668-.702 1.506-.702 2.514v6.669h-2.832v-8.719c0-1.336-.023-2.672-.08-4.008h2.459l.102 2.434h.079c.295-.837.771-1.505 1.416-2.015a3.398 3.398 0 0 1 2.04-.68c.26 0 .498.023.702.057v2.695h.023Zm12.655 3.272c0 .43-.022.86-.102 1.28h-8.486c.034 1.256.442 2.219 1.235 2.876.714.588 1.643.883 2.776.883 1.258 0 2.402-.204 3.433-.6l.442 1.958c-1.201.521-2.629.782-4.272.782-1.971 0-3.523-.578-4.656-1.744-1.122-1.155-1.688-2.717-1.688-4.676s.521-3.51 1.575-4.79c1.099-1.358 2.583-2.038 4.452-2.038 1.87 0 3.229.68 4.17 2.038.747 1.076 1.121 2.412 1.121 3.997v.034Zm-2.696-.736c.022-.838-.17-1.562-.544-2.174-.487-.792-1.246-1.177-2.255-1.177-.929 0-1.677.385-2.254 1.155-.476.611-.748 1.347-.839 2.196h5.892ZM59.98 17.878c-.782 0-1.473-.034-2.04-.102V9.25a15.451 15.451 0 0 1 2.391-.18c3.24 0 4.736 1.596 4.736 4.189 0 3-1.767 4.62-5.098 4.62h.011Zm.476-7.722c-.442 0-.816.023-1.122.09v6.489c.17.022.487.034.94.034 2.13 0 3.332-1.212 3.332-3.476 0-2.016-1.1-3.137-3.15-3.137Zm9.279 7.779c-1.824 0-3.014-1.359-3.014-3.216 0-1.857 1.213-3.306 3.116-3.306 1.801 0 3.014 1.302 3.014 3.204 0 1.902-1.247 3.318-3.116 3.318Zm.057-5.503c-1.009 0-1.643.94-1.643 2.253 0 1.314.657 2.23 1.631 2.23.975 0 1.632-1.007 1.632-2.252 0-1.246-.646-2.22-1.62-2.22v-.011Zm13.493-.883-1.96 6.25h-1.28l-.816-2.717a18.05 18.05 0 0 1-.498-2.016h-.023c-.102.68-.294 1.359-.498 2.015l-.861 2.718h-1.292l-1.847-6.25h1.428l.714 2.966c.17.714.306 1.382.419 2.004h.022c.102-.52.272-1.188.51-1.992l.884-2.99h1.133l.85 2.922c.204.713.374 1.404.498 2.06h.034c.09-.645.227-1.324.42-2.06l.759-2.921h1.36l.044.01Zm7.206 6.25h-1.393v-3.59c0-1.109-.42-1.664-1.258-1.664-.838 0-1.394.714-1.394 1.529v3.714h-1.393v-4.462c0-.554-.011-1.143-.057-1.788h1.224l.068.962h.034c.374-.668 1.133-1.087 1.983-1.087 1.314 0 2.175 1.008 2.175 2.638V17.8h.011Zm3.83 0h-1.394V8.684h1.394v9.126-.011Zm5.064.147c-1.824 0-3.014-1.359-3.014-3.216 0-1.856 1.213-3.306 3.116-3.306 1.802 0 3.014 1.302 3.014 3.205 0 1.958-1.246 3.317-3.116 3.317Zm.057-5.503c-1.008 0-1.643.94-1.643 2.254 0 1.313.657 2.23 1.631 2.23.975 0 1.632-1.008 1.632-2.253 0-1.268-.646-2.22-1.62-2.22v-.01Zm8.543 5.367-.102-.724h-.034c-.42.577-1.043.86-1.825.86-1.121 0-1.914-.781-1.914-1.834 0-1.54 1.337-2.344 3.659-2.344v-.113c0-.827-.442-1.234-1.303-1.234-.611 0-1.155.158-1.631.464l-.283-.917c.577-.363 1.303-.544 2.152-.544 1.632 0 2.459.86 2.459 2.582v2.298c0 .634.022 1.121.09 1.495h-1.257l-.011.011Zm-.193-3.113c-1.541 0-2.323.373-2.323 1.256 0 .657.397.974.952.974.702 0 1.36-.543 1.36-1.268v-.963h.011Zm8.101 3.113-.068-1.008h-.034c-.397.76-1.065 1.144-2.006 1.144-1.506 0-2.628-1.325-2.628-3.193s1.156-3.329 2.742-3.329c.838 0 1.427.283 1.767.85h.023v-3.59h1.393v7.44c0 .6.012 1.165.057 1.686h-1.246Zm-.204-3.68c0-.871-.578-1.619-1.462-1.619-1.031 0-1.665.917-1.665 2.197s.657 2.128 1.631 2.128c.873 0 1.496-.758 1.496-1.664V14.13Zm10.219 3.816c-1.824 0-3.013-1.359-3.013-3.216 0-1.856 1.212-3.306 3.115-3.306 1.802 0 3.014 1.302 3.014 3.205 0 1.958-1.246 3.317-3.116 3.317Zm.057-5.503c-1.008 0-1.643.94-1.643 2.254 0 1.313.657 2.23 1.632 2.23.974 0 1.631-1.008 1.631-2.253 0-1.268-.646-2.22-1.62-2.22v-.01Zm10.537 5.367h-1.394v-3.589c0-1.11-.419-1.664-1.257-1.664-.839 0-1.394.713-1.394 1.528V17.8h-1.394v-4.461c0-.555-.011-1.144-.056-1.79h1.223l.068.963h.034c.374-.668 1.133-1.098 1.983-1.098 1.314 0 2.175 1.008 2.175 2.638V17.8l.012.011Zm9.358-5.208h-1.529v3.034c0 .77.272 1.155.804 1.155.249 0 .453-.023.612-.068l.034 1.053c-.272.102-.635.159-1.076.159-1.099 0-1.757-.6-1.757-2.185v-3.148h-.917V11.56h.917v-1.143l1.36-.408v1.551h1.53v1.042h.022Zm7.365 5.208h-1.394v-3.566c0-1.121-.419-1.687-1.258-1.687-.725 0-1.393.486-1.393 1.483v3.77h-1.394V8.684h1.394v3.76h.022c.442-.68 1.077-1.02 1.881-1.02 1.326 0 2.13 1.03 2.13 2.661V17.8l.012.011Zm7.545-2.796h-4.169c.023 1.188.816 1.856 1.971 1.856.612 0 1.19-.102 1.688-.294l.216.962c-.59.26-1.292.385-2.096.385-1.96 0-3.116-1.234-3.116-3.147 0-1.914 1.19-3.363 2.957-3.363 1.598 0 2.606 1.189 2.606 2.966 0 .216 0 .42-.045.635h-.012Zm-1.28-.986c0-.962-.487-1.641-1.371-1.641-.793 0-1.428.69-1.518 1.641h2.9-.011Z"/></g><defs><linearGradient id="b" x1="129.589" x2="129.589" y1="53.041" y2="-138.2" gradientUnits="userSpaceOnUse"><stop stop-color="#1A1A1A" stop-opacity=".1"/><stop offset=".12" stop-color="#212121" stop-opacity=".15"/><stop offset=".31" stop-color="#353535" stop-opacity=".23"/><stop offset=".53" stop-color="#575757" stop-opacity=".32"/><stop offset=".78" stop-color="#848484" stop-opacity=".42"/><stop offset="1" stop-color="#B2B2B2" stop-opacity=".51"/></linearGradient><clipPath id="a"><path fill="#fff" d="M0 0h179v53H0z"/></clipPath></defs></svg>