<svg width="25" height="24" viewBox="0 0 25 24" fill="none" xmlns="http://www.w3.org/2000/svg">
<g clip-path="url(#clip0_151_24700)">
<path d="M12.97 15.6516C15.0385 15.6516 16.7153 14.0477 16.7153 12.0691C16.7153 10.0905 15.0385 8.48657 12.97 8.48657C10.9015 8.48657 9.22461 10.0905 9.22461 12.0691C9.22461 14.0477 10.9015 15.6516 12.97 15.6516Z" stroke="black" stroke-width="1.1395" stroke-linecap="round" stroke-linejoin="round"/>
<path d="M17.0906 3.82922H8.85087C6.36867 3.82922 4.35645 5.75396 4.35645 8.12824V16.0098C4.35645 18.384 6.36867 20.3088 8.85087 20.3088H17.0906C19.5728 20.3088 21.5851 18.384 21.5851 16.0098V8.12824C21.5851 5.75396 19.5728 3.82922 17.0906 3.82922Z" stroke="black" stroke-width="1.1395" stroke-linecap="round" stroke-linejoin="round"/>
<path d="M17.8387 8.30737C18.3558 8.30737 18.775 7.90638 18.775 7.41174C18.775 6.9171 18.3558 6.51611 17.8387 6.51611C17.3216 6.51611 16.9023 6.9171 16.9023 7.41174C16.9023 7.90638 17.3216 8.30737 17.8387 8.30737Z" fill="black"/>
</g>
<defs>
<clipPath id="clip0_151_24700">
<rect width="23.9703" height="22.9281" fill="white" transform="translate(0.984863 0.60498)"/>
</clipPath>
</defs>
</svg>
