<svg width="16" height="14" viewBox="0 0 16 14" fill="none" xmlns="http://www.w3.org/2000/svg">
<path d="M15.9561 2.62281V2.5484C15.938 1.06228 14.9762 0.100475 13.5047 0.0993476C9.85485 0.0970925 6.20383 0.0970925 2.55281 0.0993476C1.09375 0.0993476 0.110526 1.0713 0.106016 2.51457C0.0969957 4.97715 0.0969957 7.47356 0.106016 9.93614C0.110526 11.3659 1.08361 12.3311 2.52575 12.3378C3.64428 12.3435 4.65344 12.3457 5.68065 12.3333C5.82723 12.3288 5.9039 12.3638 5.99862 12.4652C6.31997 12.8125 6.65936 13.1429 6.97733 13.4485C7.29981 13.7585 7.66176 13.9141 8.02483 13.9141C8.3879 13.9141 8.75098 13.7585 9.07571 13.4462C9.20764 13.3199 9.33505 13.1891 9.45908 13.0617C9.66204 12.8542 9.85373 12.6581 10.0589 12.4788C10.1491 12.3998 10.2799 12.3502 10.351 12.348C11.0658 12.3333 11.7965 12.3344 12.5024 12.3367C12.8203 12.3367 13.1394 12.3378 13.4574 12.3367C15.0168 12.3333 15.9504 11.3963 15.9561 9.83127C15.9594 8.9935 15.9583 8.15573 15.9572 7.31683V2.62281H15.9561ZM14.8296 9.83466C14.8364 10.2688 14.7124 10.6149 14.4609 10.863C14.2095 11.1099 13.8362 11.2441 13.4337 11.2306C12.3355 11.1922 11.2293 11.2125 10.1593 11.2306C9.90108 11.2351 9.60792 11.3546 9.39256 11.5418C9.14337 11.7594 8.91335 11.9951 8.69009 12.2228C8.59425 12.3209 8.49841 12.4179 8.40144 12.5137C8.04738 12.8644 7.99777 12.8644 7.63244 12.5013C7.53998 12.41 7.44978 12.3164 7.35845 12.2228C7.13857 11.9973 6.91194 11.765 6.66387 11.5508C6.43949 11.358 6.13618 11.2351 5.87008 11.2294C5.26232 11.2182 4.62751 11.208 3.98255 11.208C3.51349 11.208 3.03879 11.2125 2.56409 11.2261C2.19199 11.2373 1.83343 11.1032 1.5865 10.8596C1.34182 10.6183 1.22004 10.2879 1.22568 9.87976C1.24823 8.23917 1.24372 6.57264 1.23921 4.96024C1.23695 4.1608 1.2347 3.36024 1.23583 2.5608C1.23583 1.67341 1.68798 1.22239 2.57762 1.22014C3.85063 1.21788 5.12363 1.21901 6.39777 1.21901H8.03498C8.56268 1.22352 9.09375 1.22126 9.6237 1.22352C10.8708 1.22803 12.1607 1.23254 13.4303 1.20999C13.843 1.20773 14.2117 1.33628 14.462 1.58659C14.7078 1.8324 14.8341 2.18645 14.8274 2.61041C14.7879 5.02563 14.7879 7.45439 14.8274 9.83127L14.8296 9.83466Z" fill="#434348"/>
<path d="M7.50297 4.30352C6.19388 4.30352 4.88479 4.30577 3.5757 4.30239C3.17203 4.30239 2.90706 4.04869 2.93638 3.69802C2.95893 3.42741 3.09762 3.24023 3.37274 3.18611C3.50128 3.1613 3.63433 3.15905 3.76626 3.15905C6.25251 3.15792 8.73877 3.15792 11.2262 3.15905C11.3175 3.15905 11.4088 3.15567 11.5002 3.16356C11.8542 3.19626 12.0786 3.43079 12.0673 3.75214C12.0572 4.06899 11.8136 4.30013 11.4618 4.30352C10.7819 4.31028 10.102 4.30577 9.42207 4.30577C8.78275 4.30577 8.14342 4.30577 7.5041 4.30577L7.50297 4.30352Z" fill="#434348"/>
<path d="M7.98985 6.6707C6.54094 6.6707 5.09204 6.67296 3.64313 6.66958C3.19662 6.66958 2.90345 6.41588 2.93502 6.06521C2.95983 5.79459 3.11318 5.60742 3.41874 5.5533C3.56082 5.52849 3.70853 5.52624 3.85398 5.52624C6.60521 5.52511 9.35645 5.52511 12.1088 5.52624C12.2103 5.52624 12.3118 5.52285 12.4121 5.53075C12.8045 5.56345 13.0514 5.79798 13.0402 6.11933C13.0289 6.43617 12.7594 6.66732 12.3704 6.6707C11.6183 6.67747 10.8651 6.67296 10.113 6.67296C9.40606 6.67296 8.69796 6.67296 7.99098 6.67296L7.98985 6.6707Z" fill="#434348"/>
<path d="M10.0254 7.89062H3.50809C3.19112 7.89062 2.93417 8.14733 2.93417 8.46399C2.93417 8.78065 3.19112 9.03735 3.50809 9.03735H10.0254C10.3423 9.03735 10.5993 8.78065 10.5993 8.46399C10.5993 8.14733 10.3423 7.89062 10.0254 7.89062Z" fill="#434348"/>
</svg>
