<svg width="16" height="14" viewBox="0 0 16 14" fill="none" xmlns="http://www.w3.org/2000/svg">
<path d="M0.265755 4.49826C0.265755 2.67726 1.55117 0.964506 3.46688 0.404112C3.71043 0.333076 3.96075 0.295866 4.2122 0.264295C4.33961 0.248509 4.4659 0.222575 4.59331 0.216937C4.72974 0.210172 4.86843 0.2113 5.00374 0.22483C5.41417 0.263167 5.81445 0.348861 6.20233 0.492061C6.70522 0.678107 7.15399 0.953231 7.55652 1.30841C7.67492 1.41327 7.80458 1.49446 7.96921 1.50686C8.10113 1.51701 8.22291 1.48656 8.3289 1.41327C8.45293 1.32645 8.5702 1.22948 8.69084 1.13702C9.27604 0.691638 9.92326 0.383816 10.655 0.267677C11.2211 0.178601 11.7803 0.214682 12.3351 0.351116C12.9722 0.507847 13.5664 0.760419 14.0941 1.15506C14.7751 1.66472 15.2329 2.33449 15.5047 3.13505C15.6783 3.64583 15.7787 4.17014 15.7854 4.70912C15.7978 5.70475 15.4799 6.58875 14.871 7.37014C14.7266 7.55506 14.5699 7.73322 14.4042 7.89897C12.9282 9.38283 11.4488 10.8633 9.97062 12.3449C9.61205 12.7035 9.25349 13.0609 8.89267 13.4183C8.64461 13.6642 8.35032 13.8085 7.99627 13.8074C7.68055 13.8074 7.41332 13.6833 7.19007 13.4623C6.83602 13.1128 6.48196 12.7632 6.13017 12.4126C5.17174 11.4598 4.20994 10.5093 3.25716 9.55084C2.70917 8.99833 2.17583 8.43005 1.63686 7.86965C1.35159 7.5731 1.08436 7.2619 0.874634 6.90446C0.668292 6.55267 0.510435 6.17945 0.4067 5.7848C0.310857 5.41835 0.262373 5.04625 0.264628 4.49713L0.265755 4.49826ZM8.02333 12.5964C8.20036 12.4295 8.37851 12.2716 8.54539 12.1036C10.23 10.4134 11.9123 8.72208 13.5957 7.03075C13.8291 6.79622 14.0309 6.53801 14.1911 6.24823C14.5733 5.55253 14.6973 4.81398 14.5429 4.03371C14.394 3.27825 14.014 2.65246 13.4254 2.16197C12.6666 1.53054 11.7927 1.29826 10.8185 1.46852C10.1195 1.5903 9.52749 1.92293 9.02573 2.41905C8.84645 2.59608 8.67506 2.77987 8.49465 2.95577C8.42361 3.02455 8.34243 3.08544 8.25673 3.13392C8.10451 3.21962 7.94215 3.21849 7.78993 3.13392C7.70423 3.08544 7.62305 3.02455 7.55201 2.9569C7.30395 2.72124 7.0728 2.46641 6.81346 2.24428C6.05236 1.59368 5.16723 1.33096 4.17499 1.47642C3.36991 1.59481 2.70353 1.97705 2.19275 2.61074C1.58274 3.36958 1.35272 4.2378 1.50945 5.1996C1.62446 5.90545 1.94356 6.51658 2.43742 7.03075C2.88619 7.49868 3.34624 7.95535 3.80402 8.41426C5.05223 9.6681 6.30043 10.9208 7.55089 12.1713C7.6986 12.319 7.86209 12.452 8.02446 12.5975L8.02333 12.5964Z" fill="#434348"/>
</svg>
