<svg width="17" height="14" viewBox="0 0 17 14" fill="none" xmlns="http://www.w3.org/2000/svg">
<path d="M8.44684 1.21629C6.92295 1.21629 5.7357 1.65836 4.68024 2.47542C4.54966 2.57725 4.41308 2.66231 4.24416 2.68507C3.80568 2.74497 3.47263 2.32447 3.62957 1.91115C3.67989 1.77936 3.76255 1.67274 3.87157 1.58409C4.85515 0.788596 5.96692 0.279434 7.22005 0.082958C8.36896 -0.097944 9.49511 0.0194633 10.5829 0.411218C13.0508 1.30015 14.5412 3.06365 15.1366 5.60107C15.2396 6.04194 15.2672 6.4936 15.2672 6.94645C15.2672 7.01234 15.2672 7.07944 15.2792 7.14413C15.3139 7.32503 15.4349 7.42327 15.6182 7.42447C15.7955 7.42447 15.9716 7.41967 16.1489 7.42447C16.2795 7.42806 16.4077 7.45322 16.5072 7.54906C16.6641 7.69881 16.6833 7.91087 16.5563 8.11333C16.4509 8.28106 16.3418 8.44519 16.234 8.61171C15.8746 9.164 15.5188 9.71869 15.1558 10.2686C15.0815 10.3812 14.9917 10.4914 14.8886 10.5777C14.7077 10.7298 14.522 10.7214 14.3447 10.5645C14.2633 10.4914 14.1902 10.404 14.1303 10.3129C13.7589 9.74624 13.3923 9.17838 13.0245 8.60931C12.9239 8.45237 12.8172 8.29903 12.7286 8.1349C12.6064 7.90847 12.6483 7.69402 12.8292 7.53229C12.9239 7.44723 13.0413 7.41608 13.1647 7.40649C13.33 7.39451 13.4977 7.39931 13.663 7.38014C13.9458 7.34659 14.0488 7.22679 14.0512 6.93926C14.0536 6.4301 13.9937 5.92693 13.8535 5.43694C13.5456 4.35752 12.967 3.44582 12.138 2.69346C11.3652 1.99261 10.4703 1.52418 9.4412 1.32771C9.05424 1.25343 8.66248 1.21749 8.44923 1.21749L8.44684 1.21629Z" fill="#434348"/>
<path d="M8.19293 12.713C9.71682 12.713 10.9041 12.271 11.9595 11.4539C12.0901 11.3521 12.2267 11.267 12.3956 11.2442C12.8341 11.1843 13.1671 11.6049 13.0102 12.0182C12.9599 12.15 12.8772 12.2566 12.7682 12.3452C11.7846 13.1407 10.6728 13.6499 9.41971 13.8464C8.27081 14.0273 7.14466 13.9099 6.05685 13.5181C3.58892 12.6292 2.09857 10.8657 1.50315 8.32825C1.40012 7.88738 1.37256 7.43572 1.37256 6.98287C1.37256 6.91698 1.37257 6.84989 1.36059 6.78519C1.32584 6.60429 1.20484 6.50605 1.02154 6.50486C0.844234 6.50486 0.668125 6.50965 0.490817 6.50486C0.360232 6.50126 0.232045 6.4761 0.132608 6.38026C-0.0243332 6.23051 -0.0434984 6.01846 0.0834924 5.81599C0.188919 5.64826 0.297932 5.48414 0.405755 5.31761C0.765163 4.76532 1.12098 4.21063 1.48398 3.66074C1.55826 3.54812 1.64811 3.43791 1.75114 3.35165C1.93205 3.1995 2.11774 3.20789 2.29505 3.36483C2.37651 3.43791 2.4496 3.52536 2.5095 3.61641C2.88088 4.18308 3.24748 4.75094 3.61527 5.32001C3.71591 5.47695 3.82253 5.6303 3.91118 5.79442C4.03338 6.02085 3.99145 6.2353 3.81055 6.39703C3.71591 6.48209 3.5985 6.51324 3.47511 6.52283C3.30978 6.53481 3.14205 6.53001 2.97672 6.54918C2.69399 6.58273 2.59096 6.70253 2.58856 6.99005C2.58617 7.49922 2.64607 8.00239 2.78624 8.49238C3.09413 9.5718 3.67277 10.4835 4.50181 11.2359C5.27454 11.9367 6.16946 12.4051 7.19857 12.6016C7.58553 12.6759 7.97729 12.7118 8.19054 12.7118L8.19293 12.713Z" fill="#434348"/>
<path d="M6.38762 6.91238C6.32053 6.97108 6.25583 7.02379 6.19713 7.0825C6.05217 7.22506 5.92758 7.24184 5.77303 7.11365C5.5502 6.93155 5.33335 6.74106 5.11891 6.54937C5.01108 6.45233 4.99311 6.3517 5.07578 6.2331C5.21715 6.02943 5.36809 5.83296 5.52144 5.63768C5.69995 5.40885 5.88684 5.18602 6.06654 4.95839C6.17916 4.81583 6.3337 4.76551 6.50382 4.73197C6.83089 4.66727 7.15556 4.5906 7.48142 4.52351C7.66591 4.48518 7.80128 4.5894 7.82644 4.7751C7.8516 4.95839 7.93307 5.10575 8.11397 5.17883C8.27571 5.24353 8.42906 5.22076 8.56683 5.11294C8.67345 5.02908 8.71778 4.91287 8.73455 4.78348C8.7621 4.58341 8.90227 4.48278 9.08557 4.52591C9.44618 4.61097 9.81038 4.67686 10.1722 4.75593C10.2836 4.77989 10.3866 4.83021 10.4621 4.92246C10.8083 5.33817 11.1558 5.75388 11.4984 6.172C11.6422 6.34811 11.6278 6.46312 11.4565 6.61287C11.2744 6.7734 11.0911 6.93274 10.9066 7.09088C10.861 7.13042 10.8095 7.16396 10.7556 7.19271C10.6598 7.24423 10.5639 7.22746 10.4729 7.1436C10.389 7.06692 10.3088 6.98666 10.2273 6.90759C10.2141 6.89561 10.1997 6.88482 10.171 6.85966C10.171 6.90639 10.171 6.93634 10.171 6.96629C10.171 7.6875 10.171 8.40871 10.171 9.12992C10.171 9.28447 10.1123 9.3863 9.99727 9.41745C9.94217 9.43183 9.88346 9.44021 9.82595 9.44021C8.79086 9.44141 7.75456 9.44141 6.71947 9.44021C6.66675 9.44021 6.61404 9.43303 6.56373 9.41985C6.47507 9.39589 6.41876 9.33479 6.40678 9.24134C6.3972 9.17066 6.39121 9.09997 6.39001 9.02929C6.39001 8.35001 6.39001 7.67193 6.39001 6.99265V6.91357L6.38762 6.91238Z" fill="#434348"/>
</svg>
